REM DIRINDEX 1\2,1\4,1\3\5,1\3\6,1\3\7
REM DIRNAME folder01,folder02,folder03,folder04,folder05,folder06,folder07
TITLE ""
FILE "CD1Track64.mp3" MP3
  TRACK 01 AUDIO
    TITLE "0:"
    INDEX 01 00:00:00
  TRACK 02 AUDIO
    TITLE "4:cjc081_1125"
    INDEX 01 00:00:25
  TRACK 03 AUDIO
    TITLE "0:"
    INDEX 01 00:04:40
  TRACK 04 AUDIO
    TITLE "5:cjc081_1126"
    INDEX 01 00:05:07
  TRACK 05 AUDIO
    TITLE "0:"
    INDEX 01 00:06:30
  TRACK 06 AUDIO
    TITLE "6:cjc081_1127"
    INDEX 01 00:06:71
  TRACK 07 AUDIO
    TITLE "0:"
    INDEX 01 00:08:09
  TRACK 08 AUDIO
    TITLE "5:cjc081_1128"
    INDEX 01 00:08:56
  TRACK 09 AUDIO
    TITLE "0:"
    INDEX 01 00:10:33
  TRACK 10 AUDIO
    TITLE "6:cjc081_1129"
    INDEX 01 00:11:01
  TRACK 11 AUDIO
    TITLE "0:"
    INDEX 01 00:12:11
  TRACK 12 AUDIO
    TITLE "5:cjc081_1130"
    INDEX 01 00:12:48
  TRACK 13 AUDIO
    TITLE "0:"
    INDEX 01 00:14:07
  TRACK 14 AUDIO
    TITLE "6:cjc081_1131"
    INDEX 01 00:14:53
  TRACK 15 AUDIO
    TITLE "0:"
    INDEX 01 00:16:06
  TRACK 16 AUDIO
    TITLE "5:cjc081_1132"
    INDEX 01 00:16:49
  TRACK 17 AUDIO
    TITLE "0:"
    INDEX 01 00:17:63
  TRACK 18 AUDIO
    TITLE "6:cjc081_1133"
    INDEX 01 00:18:31
  TRACK 19 AUDIO
    TITLE "0:"
    INDEX 01 00:20:08
  TRACK 20 AUDIO
    TITLE "5:cjc081_1134"
    INDEX 01 00:20:49
  TRACK 21 AUDIO
    TITLE "0:"
    INDEX 01 00:22:36
  TRACK 22 AUDIO
    TITLE "6:cjc081_1135"
    INDEX 01 00:23:04
  TRACK 23 AUDIO
    TITLE "0:"
    INDEX 01 00:24:41
  TRACK 24 AUDIO
    TITLE "5:cjc081_1136"
    INDEX 01 00:25:09
  TRACK 25 AUDIO
    TITLE "0:"
    INDEX 01 00:26:40
  TRACK 26 AUDIO
    TITLE "6:cjc081_1137"
    INDEX 01 00:27:14
  TRACK 27 AUDIO
    TITLE "0:"
    INDEX 01 00:28:41
  TRACK 28 AUDIO
    TITLE "5:cjc081_1138"
    INDEX 01 00:29:07
  TRACK 29 AUDIO
    TITLE "0:"
    INDEX 01 00:30:32
  TRACK 30 AUDIO
    TITLE "6:cjc081_1139"
    INDEX 01 00:31:04
  TRACK 31 AUDIO
    TITLE "0:"
    INDEX 01 00:34:16
  TRACK 32 AUDIO
    TITLE "5:cjc081_1140"
    INDEX 01 00:34:59
  TRACK 33 AUDIO
    TITLE "0:"
    INDEX 01 00:35:74
  TRACK 34 AUDIO
    TITLE "6:cjc081_1141"
    INDEX 01 00:36:42
  TRACK 35 AUDIO
    TITLE "0:"
    INDEX 01 00:37:40
  TRACK 36 AUDIO
    TITLE "5:cjc081_1142"
    INDEX 01 00:38:06
  TRACK 37 AUDIO
    TITLE "0:"
    INDEX 01 00:39:17
  TRACK 38 AUDIO
    TITLE "6:cjc081_1143"
    INDEX 01 00:39:62
  TRACK 39 AUDIO
    TITLE "0:"
    INDEX 01 00:41:10
  TRACK 40 AUDIO
    TITLE "5:cjc081_1144"
    INDEX 01 00:41:53
  TRACK 41 AUDIO
    TITLE "0:"
    INDEX 01 00:42:72
  TRACK 42 AUDIO
    TITLE "6:cjc081_1145"
    INDEX 01 00:43:46
  TRACK 43 AUDIO
    TITLE "0:"
    INDEX 01 00:44:56
  TRACK 44 AUDIO
    TITLE "5:cjc081_1146"
    INDEX 01 00:45:18
  TRACK 45 AUDIO
    TITLE "0:"
    INDEX 01 00:46:35
  TRACK 46 AUDIO
    TITLE "6:cjc081_1147"
    INDEX 01 00:47:07
  TRACK 47 AUDIO
    TITLE "0:"
    INDEX 01 00:48:42
  TRACK 48 AUDIO
    TITLE "5:cjc081_1148"
    INDEX 01 00:49:10
  TRACK 49 AUDIO
    TITLE "0:"
    INDEX 01 00:50:58
  TRACK 50 AUDIO
    TITLE "6:cjc081_1149"
    INDEX 01 00:51:24
  TRACK 51 AUDIO
    TITLE "0:"
    INDEX 01 00:52:36
  TRACK 52 AUDIO
    TITLE "5:cjc081_1150"
    INDEX 01 00:53:04
  TRACK 53 AUDIO
    TITLE "0:"
    INDEX 01 00:54:17
  TRACK 54 AUDIO
    TITLE "6:cjc081_1151"
    INDEX 01 00:54:62
  TRACK 55 AUDIO
    TITLE "0:"
    INDEX 01 00:56:47
  TRACK 56 AUDIO
    TITLE "5:cjc081_1152"
    INDEX 01 00:57:17
  TRACK 57 AUDIO
    TITLE "0:"
    INDEX 01 00:58:32
  TRACK 58 AUDIO
    TITLE "6:cjc081_1153"
    INDEX 01 00:59:00
  TRACK 59 AUDIO
    TITLE "0:"
    INDEX 01 01:01:15
  TRACK 60 AUDIO
    TITLE "5:cjc081_1154"
    INDEX 01 01:01:54
  TRACK 61 AUDIO
    TITLE "0:"
    INDEX 01 01:03:31
  TRACK 62 AUDIO
    TITLE "6:cjc081_1155"
    INDEX 01 01:04:03
  TRACK 63 AUDIO
    TITLE "0:"
    INDEX 01 01:05:68
  TRACK 64 AUDIO
    TITLE "5:cjc081_1156"
    INDEX 01 01:06:36
  TRACK 65 AUDIO
    TITLE "0:"
    INDEX 01 01:07:59
  TRACK 66 AUDIO
    TITLE "6:cjc081_1157"
    INDEX 01 01:08:29
  TRACK 67 AUDIO
    TITLE "0:"
    INDEX 01 01:09:54
  TRACK 68 AUDIO
    TITLE "5:cjc081_1158"
    INDEX 01 01:10:20
  TRACK 69 AUDIO
    TITLE "0:"
    INDEX 01 01:11:23
  TRACK 70 AUDIO
    TITLE "6:cjc081_1159"
    INDEX 01 01:11:70
  TRACK 71 AUDIO
    TITLE "0:"
    INDEX 01 01:13:45
  TRACK 72 AUDIO
    TITLE "5:cjc081_1160"
    INDEX 01 01:14:12
  TRACK 73 AUDIO
    TITLE "0:"
    INDEX 01 01:15:48
  TRACK 74 AUDIO
    TITLE "6:cjc081_1161"
    INDEX 01 01:16:12
  TRACK 75 AUDIO
    TITLE "0:"
    INDEX 01 01:17:59
  TRACK 76 AUDIO
    TITLE "5:cjc081_1162"
    INDEX 01 01:18:27
  TRACK 77 AUDIO
    TITLE "0:"
    INDEX 01 01:19:36
  TRACK 78 AUDIO
    TITLE "6:cjc081_1163"
    INDEX 01 01:20:06
  TRACK 79 AUDIO
    TITLE "0:"
    INDEX 01 01:21:29
  TRACK 80 AUDIO
    TITLE "5:cjc081_1164"
    INDEX 01 01:21:69
  TRACK 81 AUDIO
    TITLE "0:"
    INDEX 01 01:23:15
  TRACK 82 AUDIO
    TITLE "6:cjc081_1165"
    INDEX 01 01:23:58
  TRACK 83 AUDIO
    TITLE "0:"
    INDEX 01 01:25:37
  TRACK 84 AUDIO
    TITLE "5:cjc081_1166"
    INDEX 01 01:26:03
  TRACK 85 AUDIO
    TITLE "0:"
    INDEX 01 01:27:30
  TRACK 86 AUDIO
    TITLE "6:cjc081_1167"
    INDEX 01 01:28:00
  TRACK 87 AUDIO
    TITLE "0:"
    INDEX 01 01:29:74
  TRACK 88 AUDIO
    TITLE "5:cjc081_1168"
    INDEX 01 01:30:40
  TRACK 89 AUDIO
    TITLE "0:"
    INDEX 01 01:31:63
  TRACK 90 AUDIO
    TITLE "6:cjc081_1169"
    INDEX 01 01:32:35
  TRACK 91 AUDIO
    TITLE "0:"
    INDEX 01 01:34:08
  TRACK 92 AUDIO
    TITLE "5:cjc081_1170"
    INDEX 01 01:34:46
  TRACK 93 AUDIO
    TITLE "0:"
    INDEX 01 01:35:63
  TRACK 94 AUDIO
    TITLE "6:cjc081_1171"
    INDEX 01 01:36:33
  TRACK 95 AUDIO
    TITLE "0:"
    INDEX 01 01:39:08
  TRACK 96 AUDIO
    TITLE "5:cjc081_1172"
    INDEX 01 01:39:55
  TRACK 97 AUDIO
    TITLE "0:"
    INDEX 01 01:40:72
  TRACK 98 AUDIO
    TITLE "6:cjc081_1173"
    INDEX 01 01:41:44
  TRACK 99 AUDIO
    TITLE "0:"
    INDEX 01 01:42:57
  TRACK 100 AUDIO
    TITLE "5:cjc081_1174"
    INDEX 01 01:43:27
  TRACK 101 AUDIO
    TITLE "0:"
    INDEX 01 01:44:36
  TRACK 102 AUDIO
    TITLE "6:cjc081_1175"
    INDEX 01 01:45:04
  TRACK 103 AUDIO
    TITLE "0:"
    INDEX 01 01:46:55
  TRACK 104 AUDIO
    TITLE "5:cjc081_1176"
    INDEX 01 01:47:25
  TRACK 105 AUDIO
    TITLE "0:"
    INDEX 01 01:48:38
  TRACK 106 AUDIO
    TITLE "6:cjc081_1177"
    INDEX 01 01:49:02
  TRACK 107 AUDIO
    TITLE "0:"
    INDEX 01 01:50:11
  TRACK 108 AUDIO
    TITLE "7:cjc081_1178"
    INDEX 01 01:51:48
  TRACK 109 AUDIO
    TITLE "0:"
    INDEX 01 02:02:07
  TRACK 110 AUDIO
    TITLE "4:cjc081_1179"
    INDEX 01 02:04:55
  TRACK 111 AUDIO
    TITLE "0:"
    INDEX 01 02:07:53
